<?xml version="1.0" encoding="UTF-8"?>
<svg version="1.1" xmlns="http://www.w3.org/2000/svg" width="980" height="980">
<path d="M0 0 C323.4 0 646.8 0 980 0 C980 323.4 980 646.8 980 980 C656.6 980 333.2 980 0 980 C0 656.6 0 333.2 0 0 Z " fill="#000000" transform="translate(0,0)"/>
<path d="M0 0 C0.67740234 0.22494141 1.35480469 0.44988281 2.05273438 0.68164062 C26.7736162 8.95231353 47.31864457 25.46347132 59.4140625 48.71875 C60.3453938 50.79469458 61.18419757 52.87657167 62 55 C62.48339844 56.07636719 62.96679688 57.15273438 63.46484375 58.26171875 C65.07721929 62.01177769 66.15739374 65.85305518 67.125 69.8125 C67.29386719 70.46025391 67.46273437 71.10800781 67.63671875 71.77539062 C73.71659917 96.21459498 70.81952816 124.24939461 59.9921875 146.91015625 C59.14408484 148.69651422 58.38992516 150.52696056 57.65625 152.36328125 C48.14623955 173.24493156 27.55302135 187.61846808 7 196 C2.71612311 197.59435608 -1.56954637 198.87941688 -6 200 C-7.16273438 200.2990625 -8.32546875 200.598125 -9.5234375 200.90625 C-36.35332902 206.88074131 -64.52935538 202.39576241 -88.34375 188.6953125 C-110.74941524 174.39522615 -125.68630553 153.55111473 -132.17578125 127.828125 C-132.58376953 125.93320312 -132.58376953 125.93320312 -133 124 C-133.17660156 123.20601807 -133.35320312 122.41203613 -133.53515625 121.59399414 C-137.22071255 103.61209913 -136.62987171 83.51087191 -131 66 C-130.67854004 64.97543701 -130.67854004 64.97543701 -130.35058594 63.93017578 C-125.28521987 48.20689611 -117.72870115 35.59963703 -106 24 C-105.13503906 23.12472656 -104.27007812 22.24945313 -103.37890625 21.34765625 C-77.45061143 -3.65600398 -33.83410417 -11.66196782 0 0 Z " fill="#FCFCFC" transform="translate(582,404)"/>
<path d="M0 0 C2.19520185 0.67908374 4.39604674 1.33729847 6.59814453 1.99365234 C8.06577773 2.43704993 9.53323197 2.88104042 11.00048828 3.32568359 C11.68159668 3.52806641 12.36270508 3.73044922 13.06445312 3.93896484 C16.00208713 4.84447751 17.85535427 5.43054958 20.06298828 7.63818359 C22.84638012 8.63727477 25.61925158 9.56365257 28.43798828 10.45068359 C40.86846194 14.49285497 52.41505494 19.6933717 64.04248047 25.61621094 C65.93075913 26.5713021 67.82624727 27.50910121 69.72705078 28.43896484 C89.25034676 38.00976801 108.28386535 48.40440188 126.62207031 60.08984375 C128.99685309 61.59623227 131.38443081 63.07956411 133.77783203 64.55615234 C142.91744274 70.21696232 151.84688872 76.14605046 160.68798828 82.26318359 C161.70296387 82.96290283 162.71793945 83.66262207 163.76367188 84.38354492 C164.70033691 85.03734131 165.63700195 85.6911377 166.60205078 86.36474609 C167.43945801 86.94820801 168.27686523 87.53166992 169.13964844 88.1328125 C171.06298828 89.63818359 171.06298828 89.63818359 172.06298828 91.63818359 C166.93708197 89.9804004 162.91582404 86.89930217 158.56298828 83.82568359 C151.43516635 78.86741171 144.20476184 74.13136827 136.81298828 69.57568359 C135.94480469 69.04031982 135.07662109 68.50495605 134.18212891 67.95336914 C127.78023008 64.03064923 121.36429752 60.21143198 114.62548828 56.88818359 C113.76052734 56.46021484 112.89556641 56.03224609 112.00439453 55.59130859 C111.36373047 55.27677734 110.72306641 54.96224609 110.06298828 54.63818359 C110.06298828 53.97818359 110.06298828 53.31818359 110.06298828 52.63818359 C108.96664062 52.46802734 108.96664062 52.46802734 107.84814453 52.29443359 C104.95927637 51.61374657 103.04418101 50.64679872 100.50048828 49.13818359 C94.33261949 45.66144455 87.93386736 42.82094763 81.46118164 39.9609375 C76.91173208 37.94358838 72.45898826 35.8518806 68.06298828 33.51318359 C61.22044626 30.00418769 53.95413297 27.69382266 46.68798828 25.23193359 C43.37926192 24.10801702 40.14907532 22.89573496 36.93798828 21.51318359 C29.56144636 18.48790026 21.76513687 16.63770764 14.06298828 14.63818359 C13.23299316 14.41984863 12.40299805 14.20151367 11.54785156 13.9765625 C-14.79849229 7.11305922 -43.15223445 2.57674231 -69.93701172 9.63818359 C-71.00951172 9.91662109 -72.08201172 10.19505859 -73.18701172 10.48193359 C-86.24670088 14.34653549 -97.41722303 22.12366161 -104.24951172 34.01318359 C-112.82531606 49.88702199 -112.4342375 70.58899602 -107.43701172 87.57568359 C-106.3606341 90.96612733 -105.17435406 94.30350675 -103.93701172 97.63818359 C-103.63730469 98.47397949 -103.33759766 99.30977539 -103.02880859 100.17089844 C-92.53597296 129.15986312 -75.72926621 155.6343326 -55.97998047 179.19677734 C-53.91681821 181.66231542 -51.92471054 184.17408018 -49.93701172 186.70068359 C-45.80618121 191.87235329 -41.41120394 196.76310375 -36.93701172 201.63818359 C-36.10041016 202.56759766 -35.26380859 203.49701172 -34.40185547 204.45458984 C-28.02562769 211.50169771 -21.39654526 218.28335355 -14.68701172 225.01318359 C-13.8474292 225.8573584 -13.00784668 226.7015332 -12.14282227 227.57128906 C-7.81652491 231.88690209 -3.42094711 236.04660061 1.21337891 240.02929688 C3.54940318 242.06129265 5.78864977 244.18379645 8.03222656 246.31665039 C14.32042225 252.28496588 20.84328582 257.75787082 27.71533203 263.03662109 C30.80804217 265.41671303 33.7824944 267.91612414 36.75048828 270.45068359 C71.82089655 299.87059998 113.32926757 325.62830623 155.09423828 344.29052734 C157.90334342 345.56571323 160.68405274 346.89308077 163.46557617 348.22705078 C170.18501803 351.43259303 176.89809192 354.11155433 183.94580078 356.52880859 C186.49055475 357.43446038 188.87753068 358.41955197 191.31298828 359.57568359 C198.63356255 362.93151062 206.39585576 365.2183298 214.06298828 367.63818359 C214.75473145 367.86151367 215.44647461 368.08484375 216.15917969 368.31494141 C249.84590306 379.06272679 292.18165826 384.97087772 324.74267578 368.26318359 C336.57369584 361.64644289 342.68941424 353.11491102 346.84033203 340.22412109 C348.35315557 334.15074191 348.66255502 327.86597461 349.06298828 321.63818359 C349.72298828 321.63818359 350.38298828 321.63818359 351.06298828 321.63818359 C351.48367467 324.96611341 351.79446169 328.29459441 352.06298828 331.63818359 C352.14291016 332.59208984 352.22283203 333.54599609 352.30517578 334.52880859 C353.06579238 351.97824828 346.63121457 369.65632476 335.06298828 382.63818359 C323.47691818 395.27971349 307.33501978 400.11505422 291.06298828 403.63818359 C290.31791016 403.81704102 289.57283203 403.99589844 288.80517578 404.18017578 C285.23882776 404.77583718 281.71180431 404.83893973 278.10595703 404.87646484 C277.33488617 404.88634933 276.56381531 404.89623383 275.76937866 404.90641785 C258.14820389 405.08529342 241.29588196 404.71650813 224.06298828 400.63818359 C222.8825293 400.36441895 221.70207031 400.0906543 220.48583984 399.80859375 C197.80331882 394.46113 175.51546084 387.80854136 154.06298828 378.63818359 C152.81613554 378.11864912 151.5688387 377.60017703 150.32080078 377.08349609 C144.33512956 374.5608566 138.4728975 371.8987399 132.68798828 368.95068359 C127.51798313 366.31295789 127.51798313 366.31295789 122.12548828 364.20068359 C116.05973414 362.09198795 110.47625702 358.69478165 104.85693359 355.61962891 C103.31136793 354.77406903 101.76177208 353.93588334 100.21142578 353.09912109 C97.48743026 351.62602382 94.77416108 350.13475098 92.06298828 348.63818359 C91.17208496 348.14946777 91.17208496 348.14946777 90.26318359 347.65087891 C82.50880638 343.38967514 74.89454445 339.00397463 67.4934082 334.15234375 C63.50807053 331.54479905 59.46646671 329.05215803 55.38500977 326.59790039 C46.62845417 321.32886793 38.28670504 315.69936742 30.06298828 309.63818359 C28.20888925 308.30475621 26.35472609 306.97141799 24.50048828 305.63818359 C19.39195451 301.91336687 14.37623898 298.07305406 9.37939453 294.20068359 C7.21014888 292.51978881 5.03101883 290.85352913 2.84033203 289.20068359 C-3.57029504 284.34984587 -9.75918532 279.30919287 -15.83154297 274.0402832 C-19.45687759 270.89504124 -23.13397049 267.83449104 -26.87451172 264.82568359 C-30.52797466 261.86125095 -33.90971645 258.79826403 -37.16723633 255.40722656 C-38.87699858 253.69817189 -40.64571211 252.13619428 -42.48779297 250.57177734 C-47.69297401 246.04678144 -52.56005187 241.19909914 -57.43701172 236.32568359 C-58.35482422 235.42011719 -59.27263672 234.51455078 -60.21826172 233.58154297 C-61.08451172 232.71722656 -61.95076172 231.85291016 -62.84326172 230.96240234 C-63.63023437 230.17953857 -64.41720703 229.3966748 -65.22802734 228.59008789 C-66.93701172 226.63818359 -66.93701172 226.63818359 -66.93701172 224.63818359 C-67.50033203 224.41001953 -68.06365234 224.18185547 -68.64404297 223.94677734 C-71.57182905 222.27589432 -73.38233462 220.21726562 -75.62451172 217.70068359 C-76.27589111 216.97196045 -76.27589111 216.97196045 -76.94042969 216.22851562 C-80.59987411 212.10117275 -84.0977928 207.84779781 -87.53857422 203.53662109 C-89.55482701 201.10004199 -91.6256121 198.7567306 -93.74560547 196.41162109 C-97.89714124 191.7628665 -101.66684751 186.89455288 -105.37451172 181.88818359 C-106.02919434 181.00767334 -106.68387695 180.12716309 -107.35839844 179.2199707 C-124.20994912 156.46975176 -141.41073146 131.92482293 -150.72607422 105.00146484 C-151.73532686 102.19834701 -152.84003756 99.68970836 -154.24951172 97.07568359 C-156.00513238 93.49941928 -156.53539387 90.57403848 -156.93701172 86.63818359 C-157.26701172 86.30818359 -157.59701172 85.97818359 -157.93701172 85.63818359 C-162.30728011 67.74952021 -164.88207387 44.74862789 -156.93701172 27.63818359 C-156.56318359 26.75775391 -156.18935547 25.87732422 -155.80419922 24.97021484 C-148.33411472 8.62012924 -135.25278744 -1.55005118 -118.78222656 -7.70263672 C-81.04868165 -21.18246885 -37.08863163 -11.54330553 0 0 Z " fill="#FAFAFA" transform="translate(345.93701171875,292.36181640625)"/>
<path d="M0 0 C0.97195313 0.23847656 1.94390625 0.47695313 2.9453125 0.72265625 C9.1961302 2.31881306 13.86046667 5.15668054 19 9 C19.74121094 9.5259375 20.48242188 10.051875 21.24609375 10.59375 C32.66067914 18.98159091 40.52290276 29.09161103 44 43 C44 47.95 44 52.9 44 58 C28.82 58 13.64 58 -2 58 C-2.99 55.03 -3.98 52.06 -5 49 C-6.70207928 46.83753896 -6.70207928 46.83753896 -8.8125 45.5625 C-9.45832031 45.11003906 -10.10414063 44.65757812 -10.76953125 44.19140625 C-16.39414952 41.18701295 -21.49862 40.61189301 -27.75 40.625 C-28.54623779 40.62661133 -29.34247559 40.62822266 -30.1628418 40.62988281 C-38.5903638 40.80508046 -45.88828552 42.88828552 -52 49 C-54.07809703 52.30874315 -54.32613716 55.06267713 -54.375 58.9375 C-54.41753906 60.46697266 -54.41753906 60.46697266 -54.4609375 62.02734375 C-53.87683473 65.79431158 -52.69155645 67.33125335 -50 70 C-39.95282591 76.20560753 -27.3739453 76.40917168 -15.95898438 77.65283203 C-8.92725142 78.47784228 -1.96278233 79.73005857 5 81 C5.92039062 81.16242188 6.84078125 81.32484375 7.7890625 81.4921875 C20.73249583 84.02749918 34.33085835 91.29813909 42.16796875 101.9453125 C46.11623286 108.16172834 48.89552179 113.50254529 49.74609375 120.953125 C49.78594013 122.99083414 49.78594013 122.99083414 51 124 C52.36057648 141.08470725 49.99551112 156.0284927 39.0546875 169.71484375 C30.96326857 178.71385529 20.61250187 186.38299122 9 190 C7.47869988 190.51946833 5.95788138 191.04034882 4.4375 191.5625 C2.95920034 192.04433487 1.48008623 192.52368134 0 193 C-1.7015625 193.556875 -1.7015625 193.556875 -3.4375 194.125 C-26.53955498 199.79918894 -54.49548985 196.22059743 -75.3125 184.75 C-87.13875023 177.37840971 -97.91469144 167.03025839 -102.5625 153.625 C-104 147 -104 147 -104 133 C-88.82 133 -73.64 133 -58 133 C-56.35 135.97 -54.7 138.94 -53 142 C-47.6320831 147.84155663 -39.83600226 149.96851665 -32.1171875 150.3203125 C-30.34917841 150.35363726 -28.58082015 150.37175686 -26.8125 150.375 C-25.54780884 150.37741699 -25.54780884 150.37741699 -24.25756836 150.37988281 C-16.94407224 150.25070714 -10.30208759 149.36762599 -4.125 145.125 C-3.38507813 144.63257813 -2.64515625 144.14015625 -1.8828125 143.6328125 C1.45627146 140.73709238 1.95207288 138.43134406 2.4375 134.0625 C2.3598332 130.58043826 2.05312989 130.06461743 -0.3125 127.1875 C-1.199375 126.465625 -2.08625 125.74375 -3 125 C-3.44085937 124.49210938 -3.88171875 123.98421875 -4.3359375 123.4609375 C-10.29336784 118.23070523 -22.10445254 118.62689323 -29.6875 118 C-44.4362698 116.77722584 -58.41743872 115.28334552 -72 109 C-72.80695312 108.63132812 -73.61390625 108.26265625 -74.4453125 107.8828125 C-86.39199526 101.84703201 -95.1414717 91.87045629 -99.35864258 79.16650391 C-103.72873279 64.40434914 -104.22584041 47.23341805 -98 33 C-97.649375 32.19691406 -97.29875 31.39382813 -96.9375 30.56640625 C-89.65132523 15.9687575 -75.11331794 5.42967858 -60 0 C-40.27189027 -5.9060253 -19.67481177 -5.87661227 0 0 Z " fill="#FCFCFC" transform="translate(765,407)"/>
<path d="M0 0 C12.50121717 -0.09313821 25.00235028 -0.1639859 37.50384521 -0.20724869 C43.31030634 -0.22802434 49.11652813 -0.2561568 54.92285156 -0.30175781 C60.53796708 -0.34557556 66.152854 -0.36921224 71.76812744 -0.37950897 C73.89849439 -0.38683637 76.02885041 -0.40114279 78.15911865 -0.42292023 C101.97380054 -0.65644482 121.55745491 3.76014534 139.5078125 20.3125 C155.52965847 37.58997653 160.02700665 59.5875797 159.18359375 82.4609375 C157.78741043 101.76985582 148.11483447 121.07036186 133.59472656 133.73193359 C126.16858325 139.63692263 116.63484912 144.88314951 107.26171875 146.4609375 C102.37090903 145.76978116 99.8336506 142.92673172 96.3125 139.625 C94.99714763 138.42852788 93.68078029 137.23317039 92.36328125 136.0390625 C91.78876221 135.50490723 91.21424316 134.97075195 90.62231445 134.42041016 C88.84689979 132.80349487 88.84689979 132.80349487 86 131 C86 130.34 86 129.68 86 129 C85.41734375 128.74605469 84.8346875 128.49210938 84.234375 128.23046875 C81.75811967 126.86679667 80.19479374 125.35774797 78.25 123.3125 C73.65236508 118.59566714 68.75342596 114.31966708 63.71875 110.078125 C62.9865625 109.45421875 62.254375 108.8303125 61.5 108.1875 C60.8296875 107.62417969 60.159375 107.06085938 59.46875 106.48046875 C58 105 58 105 58 103 C58.95777344 102.9906543 59.91554688 102.98130859 60.90234375 102.97167969 C64.48857496 102.93151663 68.07397179 102.86568875 71.65966797 102.79248047 C73.20545657 102.76442213 74.75138461 102.74313294 76.29736328 102.72900391 C88.27451431 102.78841557 88.27451431 102.78841557 99 98 C105.60393227 91.21442716 108.1147745 82.41263705 108.5 73.1875 C108.30388863 65.30041234 106.50557989 58.0118562 101.21484375 51.95703125 C97.31167584 48.46821237 94.09917468 46.90598866 88.80395508 46.79467773 C87.95160278 46.77449585 87.09925049 46.75431396 86.22106934 46.73352051 C85.32956177 46.71704468 84.4380542 46.70056885 83.51953125 46.68359375 C82.69690796 46.66494263 81.87428467 46.6462915 81.0267334 46.6270752 C77.95543095 46.55880518 74.88395268 46.49863879 71.8125 46.4375 C64.944375 46.293125 58.07625 46.14875 51 46 C51 62.5 51 79 51 96 C50.34 96 49.68 96 49 96 C47.58829235 94.40324822 46.24600532 92.74486398 44.9375 91.0625 C41.95324717 87.32382806 38.93617348 83.82747204 35.5 80.5 C27.39071499 72.54372037 20.70675379 63.37480676 13.8125 54.375 C13.13501709 53.49231445 12.45753418 52.60962891 11.75952148 51.70019531 C11.10282471 50.83749023 10.44612793 49.97478516 9.76953125 49.0859375 C8.89711792 47.9419751 8.89711792 47.9419751 8.00708008 46.77490234 C7.34474365 45.85918457 6.68240723 44.9434668 6 44 C5.48609711 43.44362854 4.97219421 42.88725708 4.44271851 42.31402588 C-1.81791914 34.73642263 -0.67172706 26.22468368 -0.375 16.9375 C-0.3448557 15.29236664 -0.31748778 13.64717994 -0.29296875 12.00195312 C-0.22733925 7.99996899 -0.12407369 4.00058125 0 0 Z " fill="#FCFCFC" transform="translate(278,403)"/>
<path d="M0 0 C10.82642969 8.11650127 18.79613058 19.35289292 21.0625 32.875 C22.51404828 51.96977205 20.92351658 68.65920459 9.16796875 84.4140625 C2.31682084 92.03809325 -9.75064074 99.28582465 -20.17651367 100.03613281 C-22.82613838 100.08193997 -25.47501264 100.11026762 -28.125 100.125 C-29.03314453 100.145625 -29.94128906 100.16625 -30.87695312 100.1875 C-37.12844741 100.22329954 -42.15560371 99.22341586 -47.9375 96.875 C-49.28134766 96.36259766 -49.28134766 96.36259766 -50.65234375 95.83984375 C-60.63121736 91.22746456 -67.26310705 83.84956946 -72.4375 74.3125 C-72.92694092 73.41168701 -72.92694092 73.41168701 -73.42626953 72.49267578 C-80.23172799 59.07371699 -80.38386034 39.78048962 -76.375 25.5 C-71.30354012 12.31773843 -62.43652309 1.70421345 -49.41796875 -4.12890625 C-48.19013672 -4.62197266 -48.19013672 -4.62197266 -46.9375 -5.125 C-45.78701172 -5.60259766 -45.78701172 -5.60259766 -44.61328125 -6.08984375 C-30.0829655 -11.30154378 -12.66617755 -8.58974917 0 0 Z " fill="#020202" transform="translate(577.9375,457.125)"/>
<path d="M0 0 C1.13163574 -0.00064453 2.26327148 -0.00128906 3.42919922 -0.00195312 C13.25891735 0.05905796 22.89041866 0.87391794 32.625 2.1875 C32.625 2.5175 32.625 2.8475 32.625 3.1875 C30.91908691 3.1560791 30.91908691 3.1560791 29.17871094 3.12402344 C24.85478925 3.05020965 20.53091959 3.00520097 16.20654297 2.96777344 C14.35455893 2.94797295 12.50263458 2.92092521 10.65087891 2.88574219 C-14.62487892 2.41843617 -37.6969153 7.22832221 -58.375 22.1875 C-59.14457031 22.74050781 -59.91414063 23.29351562 -60.70703125 23.86328125 C-73.21055891 33.80198273 -81.29171349 50.59868004 -83.375 66.1875 C-83.74712245 71.20772418 -83.86351793 76.21764709 -83.875 81.25 C-83.87767883 81.94737274 -83.88035767 82.64474548 -83.88311768 83.36325073 C-83.86711143 102.73659797 -79.20288518 120.5297705 -71.375 138.1875 C-70.7442434 139.85199659 -70.11875012 141.51850297 -69.5 143.1875 C-66.97121542 149.51999806 -63.61373427 155.45169829 -60.34033203 161.42138672 C-59.49695996 162.9643694 -58.6672304 164.51479311 -57.83984375 166.06640625 C-51.70489792 177.53311558 -45.05801246 188.6887979 -37.375 199.1875 C-36.89434082 199.85233398 -36.41368164 200.51716797 -35.91845703 201.20214844 C-25.69228214 215.3445356 -15.14488107 229.17056821 -3.33984375 242.04296875 C-1.54561569 244.00128128 0.20195236 245.98976137 1.9375 248 C10.10441024 257.3336117 18.61996585 266.27943751 27.375 275.0625 C28.56270996 276.25709839 28.56270996 276.25709839 29.77441406 277.47583008 C34.00302303 281.69338559 38.31136009 285.75044528 42.83837891 289.64599609 C45.25490904 291.73098806 47.59323541 293.89688076 49.9375 296.0625 C54.44305332 300.17086955 59.06775155 304.07810068 63.8125 307.90625 C66.76061431 310.29749828 69.66130322 312.73961522 72.5625 315.1875 C77.45372958 319.27192883 82.4666517 323.13792442 87.58984375 326.92578125 C90.63862407 329.1976523 93.63125429 331.53123739 96.625 333.875 C107.90417044 342.6263514 119.68098144 350.90044865 131.8125 358.42578125 C134.06185472 359.83475206 136.28398715 361.27035066 138.5 362.73046875 C147.9979745 368.97936634 157.64416735 374.74805261 167.625 380.1875 C169.46098734 381.19261729 171.29692173 382.19783132 173.1328125 383.203125 C177.73112146 385.71763844 182.33281867 388.22579052 186.93994141 390.72412109 C188.79523354 391.73527049 190.64622152 392.75434313 192.49365234 393.77978516 C197.4590758 396.52724605 202.37755587 399.01100329 207.625 401.1875 C210.07400695 402.34062698 212.50860243 403.52176972 214.94458008 404.70214844 C224.3776664 409.26962151 233.81930075 413.47549569 243.625 417.1875 C244.82382812 417.65414063 246.02265625 418.12078125 247.2578125 418.6015625 C255.43148576 421.75858413 263.70002122 424.63121074 272 427.4375 C273.49744751 427.94966064 273.49744751 427.94966064 275.02514648 428.47216797 C280.44353185 430.28265216 285.76514721 431.75313043 291.39453125 432.74145508 C293.74796303 433.21208991 295.96983877 433.87998421 298.25 434.625 C305.25264071 436.78469293 312.40529329 438.01773322 319.625 439.1875 C320.86765625 439.39632813 322.1103125 439.60515625 323.390625 439.8203125 C333.32957315 441.29034996 343.33148369 441.41736382 353.35998535 441.48403931 C354.92667217 441.49450176 356.49333737 441.50930006 358.05993652 441.52890015 C383.17452691 441.80056429 409.83181623 435.8612342 428.625 418.1875 C429.31851563 417.54683594 430.01203125 416.90617187 430.7265625 416.24609375 C442.22378929 404.54910819 447.34922173 388.01085247 449.625 372.1875 C449.955 372.1875 450.285 372.1875 450.625 372.1875 C451.95439826 387.5198933 446.52364007 401.30607297 438.625 414.1875 C438.23828125 414.86039063 437.8515625 415.53328125 437.453125 416.2265625 C430.25254399 427.65357149 416.0629776 435.7835346 403.625 440.1875 C402.74457031 440.52652344 401.86414063 440.86554688 400.95703125 441.21484375 C385.18048932 446.98144184 368.87213527 447.75998392 352.25 447.6875 C351.29764465 447.68773163 350.34528931 447.68796326 349.36407471 447.6882019 C312.50374433 447.62687217 312.50374433 447.62687217 299.625 441.1875 C297.83386602 440.87567432 296.03715897 440.59553671 294.23828125 440.33203125 C287.92833368 439.31314453 281.92475826 437.72142697 275.8125 435.875 C274.77150146 435.56522217 273.73050293 435.25544434 272.65795898 434.9362793 C250.65455402 428.34190845 250.65455402 428.34190845 241.86889648 424.21118164 C239.59021968 423.17163297 237.29236964 422.22549908 234.96484375 421.30078125 C233.64722046 420.77689819 233.64722046 420.77689819 232.30297852 420.24243164 C229.81694112 419.26311105 227.32735869 418.29365045 224.8359375 417.328125 C215.00653277 413.5028391 205.49698831 409.37946914 196.14990234 404.49707031 C193.0956214 402.91293156 190.02628436 401.35961618 186.95703125 399.8046875 C169.43044528 390.89666637 152.13982475 381.65241324 135.81298828 370.65405273 C132.99846629 368.76755044 130.1501153 366.93659506 127.29907227 365.10595703 C120.29917729 360.61093834 113.37767684 356.04867072 106.625 351.1875 C105.95823242 350.71022461 105.29146484 350.23294922 104.60449219 349.74121094 C88.52436441 338.22969458 88.52436441 338.22969458 81.52734375 332.6875 C78.27499721 330.12302141 74.94548956 327.66277403 71.625 325.1875 C71.295 329.1475 70.965 333.1075 70.625 337.1875 C53.465 337.1875 36.305 337.1875 18.625 337.1875 C18.78484375 333.08828125 18.9446875 328.9890625 19.109375 324.765625 C19.18092017 321.43520694 19.23184997 318.10584377 19.26921082 314.77493286 C19.31381705 311.28933537 19.39203263 307.81302678 19.56103516 304.33105469 C20.59414582 286.61564371 20.59414582 286.61564371 13.29882812 271.05273438 C9.18999661 266.7046542 4.73048122 262.90819774 0.03860474 259.20732117 C-3.5347327 256.21697959 -6.41962278 252.77011064 -9.375 249.1875 C-10.29142487 248.1736507 -11.21550167 247.16664571 -12.1484375 246.16796875 C-31.7223613 225.15392143 -48.81542052 201.87233341 -63.27050781 177.0703125 C-64.35955924 175.21382165 -65.47149848 173.37258261 -66.5859375 171.53125 C-72.99365398 160.75188758 -77.68259312 149.36268211 -82.34082031 137.73925781 C-83.22173112 135.56567903 -84.13234971 133.41107259 -85.0703125 131.26171875 C-96.31581508 104.76408242 -98.7617439 72.49963321 -87.953125 45.65625 C-84.90858941 39.17433552 -81.09189678 33.56092416 -76.375 28.1875 C-75.80394531 27.52234375 -75.23289063 26.8571875 -74.64453125 26.171875 C-55.91539649 5.88530686 -26.48058875 -0.01567131 0 0 Z " fill="#F7F7F7" transform="translate(258.375,265.8125)"/>
<path d="M0 0 C1.13163574 -0.00064453 2.26327148 -0.00128906 3.42919922 -0.00195312 C13.25891735 0.05905796 22.89041866 0.87391794 32.625 2.1875 C32.625 2.5175 32.625 2.8475 32.625 3.1875 C30.91908691 3.1560791 30.91908691 3.1560791 29.17871094 3.12402344 C24.85478925 3.05020965 20.53091959 3.00520097 16.20654297 2.96777344 C14.35455893 2.94797295 12.50263458 2.92092521 10.65087891 2.88574219 C-14.62487892 2.41843617 -37.6969153 7.22832221 -58.375 22.1875 C-59.14457031 22.74050781 -59.91414063 23.29351562 -60.70703125 23.86328125 C-73.21055891 33.80198273 -81.29171349 50.59868004 -83.375 66.1875 C-83.74712245 71.20772418 -83.86351793 76.21764709 -83.875 81.25 C-83.87767883 81.94737274 -83.88035767 82.64474548 -83.88311768 83.36325073 C-83.86711143 102.73659797 -79.20288518 120.5297705 -71.375 138.1875 C-70.7442434 139.85199659 -70.11875012 141.51850297 -69.5 143.1875 C-66.97121542 149.51999806 -63.61373427 155.45169829 -60.34033203 161.42138672 C-59.49695996 162.9643694 -58.6672304 164.51479311 -57.83984375 166.06640625 C-51.70489792 177.53311558 -45.05801246 188.6887979 -37.375 199.1875 C-36.89434082 199.85233398 -36.41368164 200.51716797 -35.91845703 201.20214844 C-29.05408061 210.69530399 -22.05908927 220.02815044 -14.55029297 229.02392578 C-9.16144649 235.51288765 -9.16144649 235.51288765 -7.375 239.1875 C-8 242.4375 -8 242.4375 -9.375 245.1875 C-10.365 245.5175 -11.355 245.8475 -12.375 246.1875 C-20.95937443 236.53534741 -29.04917155 226.63414809 -36.78857422 216.29296875 C-38.33258932 214.24378651 -39.89858995 212.21365452 -41.47265625 210.1875 C-48.2973959 201.35071625 -54.32477812 192.21981067 -59.96435547 182.58544922 C-61.4155861 180.11850784 -62.89627551 177.6708318 -64.37890625 175.22265625 C-71.59345153 163.14160365 -77.23656011 150.74305901 -82.38916016 137.65869141 C-83.24424242 135.51526826 -84.13530713 133.39591075 -85.05859375 131.28125 C-96.32877227 104.79465834 -98.75978272 72.49476258 -87.953125 45.65625 C-84.90858941 39.17433552 -81.09189678 33.56092416 -76.375 28.1875 C-75.80394531 27.52234375 -75.23289063 26.8571875 -74.64453125 26.171875 C-55.91539649 5.88530686 -26.48058875 -0.01567131 0 0 Z " fill="#EFEFEF" transform="translate(258.375,265.8125)"/>
<path d="M0 0 C2.99268575 1.38278114 5.43004014 3.0036117 8 5.0625 C22.49742792 16.49181313 37.49177487 27.50202675 53.1875 37.23828125 C55.43685472 38.64725206 57.65898715 40.08285066 59.875 41.54296875 C69.3729745 47.79186634 79.01916735 53.56055261 89 59 C90.83598734 60.00511729 92.67192173 61.01033132 94.5078125 62.015625 C99.10612146 64.53013844 103.70781867 67.03829052 108.31494141 69.53662109 C110.17023354 70.54777049 112.02122152 71.56684313 113.86865234 72.59228516 C118.8340758 75.33974605 123.75255587 77.82350329 129 80 C131.44900695 81.15312698 133.88360243 82.33426972 136.31958008 83.51464844 C145.7526664 88.08212151 155.19430075 92.28799569 165 96 C166.19882812 96.46664062 167.39765625 96.93328125 168.6328125 97.4140625 C176.80648576 100.57108413 185.07502122 103.44371074 193.375 106.25 C194.37329834 106.59144043 195.37159668 106.93288086 196.40014648 107.28466797 C201.81853185 109.09515216 207.14014721 110.56563043 212.76953125 111.55395508 C215.12296303 112.02458991 217.34483877 112.69248421 219.625 113.4375 C226.62764071 115.59719293 233.78029329 116.83023322 241 118 C242.24265625 118.20882812 243.4853125 118.41765625 244.765625 118.6328125 C254.70457315 120.10284996 264.70648369 120.22986382 274.73498535 120.29653931 C276.30167217 120.30700176 277.86833737 120.32180006 279.43493652 120.34140015 C304.54952691 120.61306429 331.20681623 114.6737342 350 97 C350.69351562 96.35933594 351.38703125 95.71867188 352.1015625 95.05859375 C363.59878929 83.36160819 368.72422173 66.82335247 371 51 C371.33 51 371.66 51 372 51 C373.32939826 66.3323933 367.89864007 80.11857297 360 93 C359.61328125 93.67289063 359.2265625 94.34578125 358.828125 95.0390625 C351.62754399 106.46607149 337.4379776 114.5960346 325 119 C324.11957031 119.33902344 323.23914063 119.67804688 322.33203125 120.02734375 C306.55548932 125.79394184 290.24713527 126.57248392 273.625 126.5 C272.67264465 126.50023163 271.72028931 126.50046326 270.73907471 126.5007019 C233.87874433 126.43937217 233.87874433 126.43937217 221 120 C219.20886602 119.68817432 217.41215897 119.40803671 215.61328125 119.14453125 C209.30333368 118.12564453 203.29975826 116.53392697 197.1875 114.6875 C196.14650146 114.37772217 195.10550293 114.06794434 194.03295898 113.7487793 C172.02955402 107.15440845 172.02955402 107.15440845 163.24389648 103.02368164 C160.96521968 101.98413297 158.66736964 101.03799908 156.33984375 100.11328125 C155.46142822 99.76402588 154.5830127 99.41477051 153.67797852 99.05493164 C151.19194112 98.07561105 148.70235869 97.10615045 146.2109375 96.140625 C136.38153277 92.3153391 126.87198831 88.19196914 117.52490234 83.30957031 C114.4706214 81.72543156 111.40128436 80.17211618 108.33203125 78.6171875 C90.80544528 69.70916637 73.51482475 60.46491324 57.18798828 49.46655273 C54.37346629 47.58005044 51.5251153 45.74909506 48.67407227 43.91845703 C41.67417729 39.42343834 34.75267684 34.86117072 28 30 C27.33323242 29.52272461 26.66646484 29.04544922 25.97949219 28.55371094 C2.86272229 12.00477063 2.86272229 12.00477063 -3 6 C-2.01 6 -1.02 6 0 6 C0 4.02 0 2.04 0 0 Z " fill="#ECECEC" transform="translate(337,587)"/>
<path d="M0 0 C0.33 0 0.66 0 1 0 C2.32939826 15.3323933 -3.10135993 29.11857297 -11 42 C-11.38671875 42.67289063 -11.7734375 43.34578125 -12.171875 44.0390625 C-19.37245601 55.46607149 -33.5620224 63.5960346 -46 68 C-46.88042969 68.33902344 -47.76085937 68.67804688 -48.66796875 69.02734375 C-64.44451068 74.79394184 -80.75286473 75.57248392 -97.375 75.5 C-98.80353302 75.50034744 -98.80353302 75.50034744 -100.26092529 75.5007019 C-137.12125567 75.43937217 -137.12125567 75.43937217 -150 69 C-151.79113398 68.68817432 -153.58784103 68.40803671 -155.38671875 68.14453125 C-161.69666632 67.12564453 -167.70024174 65.53392697 -173.8125 63.6875 C-175.3739978 63.22283325 -175.3739978 63.22283325 -176.96704102 62.7487793 C-198.86406846 56.18628956 -198.86406846 56.18628956 -207.859375 51.98046875 C-211.83793503 50.15817209 -215.92746163 48.59840754 -220 47 C-218.68 46.34 -217.36 45.68 -216 45 C-216 44.01 -216 43.02 -216 42 C-210.42018723 43.28285874 -205.29061456 44.9590478 -200 47.125 C-192.57426754 50.08245173 -185.07612704 52.76563675 -177.5 55.3125 C-176.015 55.81837646 -176.015 55.81837646 -174.5 56.33447266 C-169.11740492 58.12414935 -163.82355207 59.56792424 -158.23486328 60.55175781 C-155.88032892 61.0240022 -153.65652284 61.69212771 -151.375 62.4375 C-144.37235929 64.59719293 -137.21970671 65.83023322 -130 67 C-128.75734375 67.20882812 -127.5146875 67.41765625 -126.234375 67.6328125 C-116.29542685 69.10284996 -106.29351631 69.22986382 -96.26501465 69.29653931 C-94.69832783 69.30700176 -93.13166263 69.32180006 -91.56506348 69.34140015 C-66.45047309 69.61306429 -39.79318377 63.6737342 -21 46 C-19.95972656 45.03900391 -19.95972656 45.03900391 -18.8984375 44.05859375 C-7.40121071 32.36160819 -2.27577827 15.82335247 0 0 Z " fill="#EBEBEB" transform="translate(708,638)"/>
<path d="M0 0 C11.15497632 3.631092 21.53643501 8.65856095 31.96191406 13.96923828 C33.90281751 14.95084997 35.85128236 15.91464422 37.8046875 16.87109375 C55.93567192 25.76518694 73.43404408 35.61753129 90.49462891 46.41943359 C92.89810275 47.93571596 95.31203165 49.43351112 97.73046875 50.92578125 C106.86364944 56.58580751 115.78871898 62.5112008 124.625 68.625 C125.63997559 69.32471924 126.65495117 70.02443848 127.70068359 70.74536133 C128.63734863 71.39915771 129.57401367 72.0529541 130.5390625 72.7265625 C131.37646973 73.31002441 132.21387695 73.89348633 133.07666016 74.49462891 C135 76 135 76 136 78 C130.87409369 76.34221681 126.85283576 73.26111857 122.5 70.1875 C115.37217807 65.22922811 108.14177356 60.49318468 100.75 55.9375 C99.88181641 55.40213623 99.01363281 54.86677246 98.11914062 54.31518555 C91.7172418 50.39246563 85.30130924 46.57324839 78.5625 43.25 C77.69753906 42.82203125 76.83257812 42.3940625 75.94140625 41.953125 C75.30074219 41.63859375 74.66007812 41.3240625 74 41 C74 40.34 74 39.68 74 39 C73.26910156 38.8865625 72.53820312 38.773125 71.78515625 38.65625 C68.89628809 37.97556297 66.98119273 37.00861513 64.4375 35.5 C58.26963121 32.02326095 51.87087908 29.18276403 45.39819336 26.32275391 C40.8487438 24.30540479 36.39599998 22.213697 32 19.875 C25.16561838 16.36492417 17.90177086 14.05643412 10.63671875 11.61328125 C6.65872815 10.26440828 2.834535 8.71286246 -1 7 C-0.01 6.67 0.98 6.34 2 6 C1.67 5.195625 1.34 4.39125 1 3.5625 C0 1 0 1 0 0 Z " fill="#EDEDED" transform="translate(382,306)"/>
<path d="M0 0 C0.33 0 0.66 0 1 0 C2.32939826 15.3323933 -3.10135993 29.11857297 -11 42 C-11.38671875 42.67289063 -11.7734375 43.34578125 -12.171875 44.0390625 C-19.36001658 55.44633065 -33.5639759 63.63009402 -46 68 C-46.97324219 68.350625 -47.94648437 68.70125 -48.94921875 69.0625 C-57.10792159 71.90394324 -65.27099149 74.4594215 -74 74 C-74 73.01 -74 72.02 -74 71 C-74.68408936 71.16749756 -75.36817871 71.33499512 -76.07299805 71.50756836 C-79.4139416 72.06964052 -82.44675009 72.01312445 -85.83203125 71.87890625 C-87.12431641 71.83056641 -88.41660156 71.78222656 -89.74804688 71.73242188 C-91.10286994 71.67590949 -92.45768759 71.61926724 -93.8125 71.5625 C-95.18682807 71.50922394 -96.56117703 71.45648399 -97.93554688 71.40429688 C-101.29060765 71.2748033 -104.64535727 71.13984284 -108 71 C-108 70.67 -108 70.34 -108 70 C-107.11441406 69.98541748 -106.22882812 69.97083496 -105.31640625 69.95581055 C-82.44937885 69.81916351 -82.44937885 69.81916351 -60 66 C-58.92105469 65.73445312 -57.84210937 65.46890625 -56.73046875 65.1953125 C-43.59880272 61.60673146 -30.95204935 55.35923775 -21 46 C-19.95972656 45.03900391 -19.95972656 45.03900391 -18.8984375 44.05859375 C-7.40121071 32.36160819 -2.27577827 15.82335247 0 0 Z " fill="#E6E6E6" transform="translate(708,638)"/>
<path d="M0 0 C4.20401266 1.59772453 6.76837086 4.72958504 9.6875 8 C10.4765271 8.87023804 10.4765271 8.87023804 11.28149414 9.75805664 C12.35112127 10.93933655 13.41811812 12.12300365 14.48242188 13.30908203 C15.85206421 14.83516678 17.23021503 16.35360486 18.609375 17.87109375 C22.50801354 22.16875402 26.33198301 26.5037211 30 31 C28.02 31.99 28.02 31.99 26 33 C25.34 32.01 24.68 31.02 24 30 C24 31.65 24 33.3 24 35 C0.59977353 15.75981379 0.59977353 15.75981379 -3 6 C-1.625 2.75 -1.625 2.75 0 0 Z " fill="#F1F1F1" transform="translate(250,505)"/>
<path d="M0 0 C1.13163574 -0.00064453 2.26327148 -0.00128906 3.42919922 -0.00195312 C13.25891735 0.05905796 22.89041866 0.87391794 32.625 2.1875 C32.625 2.5175 32.625 2.8475 32.625 3.1875 C30.91908691 3.1560791 30.91908691 3.1560791 29.17871094 3.12402344 C24.85478925 3.05020965 20.53091959 3.00520097 16.20654297 2.96777344 C14.35455893 2.94797295 12.50263458 2.92092521 10.65087891 2.88574219 C-11.82777896 2.47014982 -34.50612869 5.72614268 -53.3359375 18.8671875 C-55.375 20.1875 -55.375 20.1875 -57.375 20.1875 C-58.39604551 19.20899805 -59.3956121 18.20769573 -60.375 17.1875 C-61.035 16.8575 -61.695 16.5275 -62.375 16.1875 C-60.92306462 15.26073274 -59.4629504 14.34677994 -58 13.4375 C-57.18789062 12.92703125 -56.37578125 12.4165625 -55.5390625 11.890625 C-47.9860562 7.82505618 -40.14424876 5.40387499 -31.8125 3.5 C-30.93142578 3.28794922 -30.05035156 3.07589844 -29.14257812 2.85742188 C-19.38389954 0.57439522 -10.00994747 -0.00592392 0 0 Z " fill="#E3E3E3" transform="translate(258.375,265.8125)"/>
<path d="M0 0 C7.51223316 4.01641446 14.86084138 8.23911453 22.125 12.6875 C23.12635986 13.29980469 24.12771973 13.91210938 25.15942383 14.54296875 C37.6738657 22.22262625 49.9391044 30.18720514 62 38.5625 C63.32004028 39.47515625 63.32004028 39.47515625 64.66674805 40.40625 C65.47797119 40.97472656 66.28919434 41.54320312 67.125 42.12890625 C67.84945312 42.63494385 68.57390625 43.14098145 69.3203125 43.66235352 C71 45 71 45 72 47 C66.87409369 45.34221681 62.85283576 42.26111857 58.5 39.1875 C51.37217807 34.22922811 44.14177356 29.49318468 36.75 24.9375 C35.88181641 24.40213623 35.01363281 23.86677246 34.11914062 23.31518555 C27.7172418 19.39246563 21.30130924 15.57324839 14.5625 12.25 C13.26505859 11.60804688 13.26505859 11.60804688 11.94140625 10.953125 C11.30074219 10.63859375 10.66007812 10.3240625 10 10 C10 9.34 10 8.68 10 8 C8.948125 7.8453125 8.948125 7.8453125 7.875 7.6875 C4.60862353 6.90640997 1.9528148 5.57941257 -1 4 C-0.67 2.68 -0.34 1.36 0 0 Z " fill="#CECECE" transform="translate(446,337)"/>
<path d="M0 0 C6.39231252 0.1661279 11.66317067 3.76506466 17.08984375 6.83203125 C18.19005859 7.42693359 19.29027344 8.02183594 20.42382812 8.63476562 C28.51506105 13.10768315 28.51506105 13.10768315 29.65234375 16.51953125 C30.31234375 16.84953125 30.97234375 17.17953125 31.65234375 17.51953125 C27.98159578 16.90183354 24.85143191 15.87584815 21.44921875 14.375 C20.46824219 13.94509766 19.48726563 13.51519531 18.4765625 13.07226562 C17.46207031 12.62173828 16.44757813 12.17121094 15.40234375 11.70703125 C14.40332031 11.26810547 13.40429688 10.82917969 12.375 10.37695312 C9.46487203 9.09687723 6.5579859 7.80975316 3.65234375 6.51953125 C2.29592773 5.9174585 2.29592773 5.9174585 0.91210938 5.30322266 C-1.1748608 4.37617972 -3.26147947 3.44835792 -5.34765625 2.51953125 C-3.34765625 0.51953125 -3.34765625 0.51953125 0 0 Z " fill="#DEDEDE" transform="translate(416.34765625,322.48046875)"/>
<path d="M0 0 C1.13163574 -0.00064453 2.26327148 -0.00128906 3.42919922 -0.00195312 C13.25891735 0.05905796 22.89041866 0.87391794 32.625 2.1875 C32.625 2.5175 32.625 2.8475 32.625 3.1875 C31.46154053 3.17178955 30.29808105 3.1560791 29.09936523 3.13989258 C24.7102778 3.08487198 20.32121963 3.05089243 15.93188477 3.02270508 C14.04576461 3.00778045 12.15967815 2.98743336 10.27368164 2.96118164 C-0.32212198 2.81757654 -10.21623341 3.07977083 -20.55444336 5.5378418 C-23.375 6.1875 -23.375 6.1875 -26.375 6.1875 C-26.375 5.5275 -26.375 4.8675 -26.375 4.1875 C-27.695 3.8575 -29.015 3.5275 -30.375 3.1875 C-29.06411318 2.86830061 -27.75114752 2.55764053 -26.4375 2.25 C-25.70660156 2.07597656 -24.97570312 1.90195312 -24.22265625 1.72265625 C-16.17040065 0.20940657 -8.17823918 -0.00483991 0 0 Z " fill="#A7A7A7" transform="translate(258.375,265.8125)"/>
<path d="M0 0 C5.19644079 1.59890486 10.06612142 3.74138003 15 6 C14.01 6.495 14.01 6.495 13 7 C13 8.32 13 9.64 13 11 C13.99 11 14.98 11 16 11 C16 11.66 16 12.32 16 13 C10.14340094 11.33846988 4.5409866 9.52958084 -1 7 C-0.01 6.67 0.98 6.34 2 6 C1.67 5.195625 1.34 4.39125 1 3.5625 C0 1 0 1 0 0 Z " fill="#E5E5E5" transform="translate(382,306)"/>
<path d="M0 0 C0.66 0 1.32 0 2 0 C4.60341556 20.59487666 4.60341556 20.59487666 1 26 C0.34 24.68 -0.32 23.36 -1 22 C-1.33 23.32 -1.66 24.64 -2 26 C-2.66 26 -3.32 26 -4 26 C-3.79503906 25.12859375 -3.59007812 24.2571875 -3.37890625 23.359375 C-1.61502831 15.5611778 -0.42407666 7.98433981 0 0 Z " fill="#DFDFDF" transform="translate(695,614)"/>
<path d="M0 0 C3.77866101 -0.55568544 4.9642145 -0.02455868 8.1875 2.1875 C10.83594918 4.83594918 11.987761 6.45716349 13 10 C12.01 10 11.02 10 10 10 C9.34 9.01 8.68 8.02 8 7 C7.46375 7.226875 6.9275 7.45375 6.375 7.6875 C2.93918099 8.13958145 0.94233306 6.67178015 -2 5 C-1.34 3.35 -0.68 1.7 0 0 Z " fill="#F4F4F4" transform="translate(356,604)"/>
<path d="M0 0 C1.93504557 -0.04903539 3.87213388 0.01002438 5.80639648 0.08374023 C7.80639648 2.08374023 7.80639648 2.08374023 7.80639648 4.08374023 C5.09760313 5.43813691 2.79706381 5.14875474 -0.19360352 5.08374023 C-0.19360352 4.09374023 -0.19360352 3.10374023 -0.19360352 2.08374023 C-0.87769287 2.25123779 -1.56178223 2.41873535 -2.26660156 2.59130859 C-5.60754512 3.15338076 -8.6403536 3.09686468 -12.02563477 2.96264648 C-13.31791992 2.91430664 -14.61020508 2.8659668 -15.94165039 2.81616211 C-17.29647345 2.75964972 -18.65129111 2.70300747 -20.00610352 2.64624023 C-21.38043158 2.59296417 -22.75478054 2.54022423 -24.12915039 2.48803711 C-27.48421116 2.35854354 -30.83896078 2.22358308 -34.19360352 2.08374023 C-34.19360352 1.75374023 -34.19360352 1.42374023 -34.19360352 1.08374023 C-29.78284792 0.93967803 -25.37204124 0.79732741 -20.96118164 0.65649414 C-19.46377101 0.6084506 -17.96637474 0.55995685 -16.46899414 0.51098633 C-14.30431778 0.44027357 -12.1395932 0.37123391 -9.97485352 0.30249023 C-8.67612305 0.2605957 -7.37739258 0.21870117 -6.03930664 0.17553711 C-4.02592776 0.12747779 -2.01248651 0.07682614 0 0 Z " fill="#C4C4C4" transform="translate(634.193603515625,706.916259765625)"/>
<path d="M0 0 C10.47058824 4.00346021 10.47058824 4.00346021 12.0625 7 C12 9 12 9 10.5625 10.75 C9.7890625 11.36875 9.7890625 11.36875 9 12 C6.0280615 10.87548273 3.66559313 9.77706209 1 8 C1.66 8 2.32 8 3 8 C2.01 5.36 1.02 2.72 0 0 Z " fill="#E3E3E3" transform="translate(461,665)"/>
<path d="M0 0 C8.96487754 4.89145088 17.0627117 10.54468756 25.20947266 16.66894531 C28.10821475 18.8238324 31.0540273 20.91028313 34 23 C33.01 23.495 33.01 23.495 32 24 C31.04222656 23.33355469 30.08445312 22.66710937 29.09765625 21.98046875 C19.19278206 15.11561743 9.15078448 8.49499452 -1 2 C-0.67 1.34 -0.34 0.68 0 0 Z " fill="#8D8D8D" transform="translate(484,360)"/>
<path d="M0 0 C0.33 0 0.66 0 1 0 C1.9074026 10.46537661 -0.75009427 19.20385558 -4 29 C-4.99 28.67 -5.98 28.34 -7 28 C-6.54287762 26.45797384 -6.08423653 24.91639786 -5.625 23.375 C-5.21314453 21.99054687 -5.21314453 21.99054687 -4.79296875 20.578125 C-4.22850454 18.74292117 -3.60308569 16.92599657 -2.9375 15.125 C-1.45418268 10.18060893 -0.77524562 5.09682758 0 0 Z " fill="#B4B4B4" transform="translate(708,638)"/>
<path d="M0 0 C4.00748653 0.58487641 6.85736768 1.84394575 10.3125 3.9375 C11.19550781 4.46214844 12.07851563 4.98679687 12.98828125 5.52734375 C13.65214844 6.01332031 14.31601562 6.49929688 15 7 C15 7.66 15 8.32 15 9 C15.66 9.33 16.32 9.66 17 10 C12.76677156 9.37954537 9.47709705 7.89476441 5.6875 5.9375 C4.61886719 5.38964844 3.55023438 4.84179688 2.44921875 4.27734375 C1.64097656 3.85582031 0.83273437 3.43429687 0 3 C0 2.01 0 1.02 0 0 Z " fill="#E9E9E9" transform="translate(431,330)"/>
<path d="M0 0 C0 1.32 0 2.64 0 4 C-3.465 5.485 -3.465 5.485 -7 7 C-8.32 5.35 -9.64 3.7 -11 2 C-9.73392393 1.46770674 -8.46189588 0.94955456 -7.1875 0.4375 C-6.47980469 0.14746094 -5.77210938 -0.14257812 -5.04296875 -0.44140625 C-3 -1 -3 -1 0 0 Z " fill="#E2E2E2" transform="translate(669,699)"/>
<path d="M0 0 C0 0.66 0 1.32 0 2 C-1.29009643 2.50403768 -2.58213789 3.00309926 -3.875 3.5 C-4.59429687 3.7784375 -5.31359375 4.056875 -6.0546875 4.34375 C-8 5 -8 5 -10 5 C-10 4.34 -10 3.68 -10 3 C-14.455 3.495 -14.455 3.495 -19 4 C-13.06147771 0.04098514 -6.91895619 -0.24710558 0 0 Z " fill="#DDDDDD" transform="translate(232,270)"/>
<path d="M0 0 C-0.5 1.8125 -0.5 1.8125 -2 4 C-4.56072611 5.37162003 -7.15636384 6.39748699 -10 7 C-10.99 6.67 -11.98 6.34 -13 6 C-9.58698225 1.24615385 -9.58698225 1.24615385 -7.0625 0.1875 C-4.6954176 -0.02768931 -2.37544701 -0.06598464 0 0 Z " fill="#F0F0F0" transform="translate(222,273)"/>
<path d="M0 0 C2.82405426 0.05637858 3.75432284 0.08136713 6.0625 1.8125 C6.5575 2.555 6.5575 2.555 7.0625 3.3125 C6.4025 3.9725 5.7425 4.6325 5.0625 5.3125 C2.10975901 5.3125 0.57191597 4.87358169 -2.125 3.8125 C-2.84042969 3.5340625 -3.55585938 3.255625 -4.29296875 2.96875 C-4.83566406 2.7521875 -5.37835938 2.535625 -5.9375 2.3125 C-3.9375 0.3125 -3.9375 0.3125 0 0 Z " fill="#D8D8D8" transform="translate(416.9375,322.6875)"/>
<path d="M0 0 C0.66 0 1.32 0 2 0 C2.97159933 7.68604474 3.10920422 15.25863399 3 23 C2.67 23 2.34 23 2 23 C2 19.37 2 15.74 2 12 C1.34 12 0.68 12 0 12 C0 8.04 0 4.08 0 0 Z " fill="#898989" transform="translate(695,614)"/>
<path d="M0 0 C5.12295063 0.48460344 8.18497849 2.12948494 12.375 5.0625 C13.43460937 5.79597656 14.49421875 6.52945312 15.5859375 7.28515625 C16.38257813 7.85105469 17.17921875 8.41695313 18 9 C15 10 15 10 13.203125 9.14453125 C12.55859375 8.70496094 11.9140625 8.26539063 11.25 7.8125 C7.57471152 5.37591986 3.84309776 3.16174249 0 1 C0 0.67 0 0.34 0 0 Z " fill="#CECECE" transform="translate(466,351)"/>
<path d="M0 0 C0.66 0.66 1.32 1.32 2 2 C1 5 1 5 -1.0625 6.1875 C-1.701875 6.455625 -2.34125 6.72375 -3 7 C-3 7.66 -3 8.32 -3 9 C-3.61875 9.28875 -4.2375 9.5775 -4.875 9.875 C-7.13325765 10.93720042 -7.13325765 10.93720042 -9 13 C-11.125 12.625 -11.125 12.625 -13 12 C-12.39671875 11.55269531 -11.7934375 11.10539063 -11.171875 10.64453125 C-6.89830703 7.41178386 -3.09726243 4.44389827 0 0 Z " fill="#2A2A2A" transform="translate(804,575)"/>
<path d="M0 0 C0.66 0.66 1.32 1.32 2 2 C0.74558251 5.90263218 -1.62482037 7.19208487 -5.1484375 9.0703125 C-7.09784945 10.04913116 -9.04722131 11.02791193 -11 12 C-7.49102731 7.81576108 -3.91939465 3.80411834 0 0 Z " fill="#2C2C2C" transform="translate(629,571)"/>
<path d="M0 0 C-0.99 0 -1.98 0 -3 0 C-3 0.66 -3 1.32 -3 2 C-6.27422874 4.33873481 -9.04793479 5.40719022 -13 6 C-13.928125 6.185625 -14.85625 6.37125 -15.8125 6.5625 C-16.534375 6.706875 -17.25625 6.85125 -18 7 C-15.54234547 4.18652343 -12.93721011 2.80685406 -9.5625 1.25 C-8.61503906 0.80140625 -7.66757812 0.3528125 -6.69140625 -0.109375 C-3.87551411 -1.04119417 -2.71771213 -1.05367562 0 0 Z " fill="#CFCFCF" transform="translate(709,408)"/>
<path d="M0 0 C2 1 2 1 3 3 C2.360625 3.268125 1.72125 3.53625 1.0625 3.8125 C-1.33131686 4.88667752 -1.33131686 4.88667752 -2 8 C-2.33 7.34 -2.66 6.68 -3 6 C-4.65 6.66 -6.3 7.32 -8 8 C-6.49776416 3.79373966 -3.71449966 2.26099979 0 0 Z " fill="#232323" transform="translate(720,450)"/>
<path d="M0 0 C-1.39332574 3.36720387 -2.9789286 4.9859524 -6 7 C-6.66 6.67 -7.32 6.34 -8 6 C-7.1875 3.5625 -7.1875 3.5625 -6 1 C-3 0 -3 0 0 0 Z " fill="#F1F1F1" transform="translate(690,686)"/>
<path d="M0 0 C3.04860014 1.01620005 3.86666922 1.77391571 6 4 C6.66 4.33 7.32 4.66 8 5 C8 5.66 8 6.32 8 7 C8.66 7 9.32 7 10 7 C9.67 7.99 9.34 8.98 9 10 C7.67823515 9.09674384 6.36784934 8.17682097 5.0625 7.25 C4.33160156 6.73953125 3.60070312 6.2290625 2.84765625 5.703125 C0.79194601 3.80822085 0.37330824 2.72574271 0 0 Z " fill="#EDEDED" transform="translate(348,516)"/>
<path d="M0 0 C1.65 0 3.3 0 5 0 C5 1.65 5 3.3 5 5 C1.98968256 5.93423645 1.13349732 6.04449911 -2 5 C-1.34 3.35 -0.68 1.7 0 0 Z " fill="#FAFAFA" transform="translate(237,494)"/>
<path d="M0 0 C0.66 0.33 1.32 0.66 2 1 C-2.85526316 7.20394737 -2.85526316 7.20394737 -7 9 C-8.70921589 10.5412312 -8.70921589 10.5412312 -10 12 C-10.66 11.67 -11.32 11.34 -12 11 C-10.75323147 9.72599623 -9.5024352 8.45593346 -8.25 7.1875 C-7.55390625 6.47980469 -6.8578125 5.77210938 -6.140625 5.04296875 C-4.18571355 3.17724121 -2.19661447 1.56830358 0 0 Z " fill="#CFCFCF" transform="translate(194,283)"/>
<path d="M0 0 C0.66 0.66 1.32 1.32 2 2 C0.02 4.31 -1.96 6.62 -4 9 C-4.66 8.67 -5.32 8.34 -6 8 C-6 6.68 -6 5.36 -6 4 C-3 2 -3 2 0 2 C0 1.34 0 0.68 0 0 Z " fill="#E8E8E8" transform="translate(247,315)"/>
<path d="M0 0 C1.65 0.33 3.3 0.66 5 1 C5 1.99 5 2.98 5 4 C2.69 4.66 0.38 5.32 -2 6 C-1.34 4.02 -0.68 2.04 0 0 Z " fill="#F0F0F0" transform="translate(656,702)"/>
<path d="M0 0 C0.66 0.33 1.32 0.66 2 1 C1.67 1.66 1.34 2.32 1 3 C1.66 3.33 2.32 3.66 3 4 C2.67 4.66 2.34 5.32 2 6 C-1.79588866 5.45773019 -3.47211993 3.79872437 -6 1 C-4.7934375 1.0309375 -4.7934375 1.0309375 -3.5625 1.0625 C-1.06645115 1.29633621 -1.06645115 1.29633621 0 0 Z " fill="#DDDDDD" transform="translate(364,610)"/>
<path d="M0 0 C0.33 0.66 0.66 1.32 1 2 C1.99 2 2.98 2 4 2 C4.66 4.31 5.32 6.62 6 9 C5.01 9.495 5.01 9.495 4 10 C2.35 7.03 0.7 4.06 -1 1 C-0.67 0.67 -0.34 0.34 0 0 Z " fill="#0D0D0D" transform="translate(264,433)"/>
<path d="M0 0 C0.33 0.66 0.66 1.32 1 2 C0.67 2.66 0.34 3.32 0 4 C0.66 4.33 1.32 4.66 2 5 C1.67 5.66 1.34 6.32 1 7 C-1.31 7 -3.62 7 -6 7 C-4.02 4.69 -2.04 2.38 0 0 Z " fill="#DEDEDE" transform="translate(691,680)"/>
<path d="M0 0 C4 4.75 4 4.75 4 7 C2.35 7.33 0.7 7.66 -1 8 C-1.625 5.6875 -1.625 5.6875 -2 3 C-1.34 2.01 -0.68 1.02 0 0 Z " fill="#151515" transform="translate(459,556)"/>
<path d="M0 0 C2.0625 0.75 2.0625 0.75 4 2 C4.33 2.99 4.66 3.98 5 5 C4.34 5.66 3.68 6.32 3 7 C1.35 5.02 -0.3 3.04 -2 1 C-1.34 0.67 -0.68 0.34 0 0 Z " fill="#1A1A1A" transform="translate(275,527)"/>
<path d="M0 0 C3.3 1.98 6.6 3.96 10 6 C9.67 6.99 9.34 7.98 9 9 C5.7 6.69 2.4 4.38 -1 2 C-0.67 1.34 -0.34 0.68 0 0 Z " fill="#2B2B2B" transform="translate(518,383)"/>
<path d="M0 0 C0.8971875 0.309375 0.8971875 0.309375 1.8125 0.625 C0.8225 0.955 -0.1675 1.285 -1.1875 1.625 C-2.39632096 3.62516466 -2.39632096 3.62516466 -3.1875 5.625 C-4.8375 5.295 -6.4875 4.965 -8.1875 4.625 C-3.2421875 -0.55580357 -3.2421875 -0.55580357 0 0 Z " fill="#DADADA" transform="translate(204.1875,278.375)"/>
<path d="M0 0 C2 3 2 3 1.7578125 5.04296875 C1.171875 7.02864583 0.5859375 9.01432292 0 11 C-0.99 10.67 -1.98 10.34 -3 10 C-2.01 6.7 -1.02 3.4 0 0 Z " fill="#CDCDCD" transform="translate(704,656)"/>
<path d="M0 0 C4.51478398 0.53115106 7.34666857 2.36620292 11 5 C8 6 8 6 5.95703125 5.0390625 C5.24933594 4.57242187 4.54164063 4.10578125 3.8125 3.625 C3.09707031 3.16351563 2.38164062 2.70203125 1.64453125 2.2265625 C1.10183594 1.82179688 0.55914062 1.41703125 0 1 C0 0.67 0 0.34 0 0 Z " fill="#E3E3E3" transform="translate(457,345)"/>
<path d="M0 0 C0.66 1.32 1.32 2.64 2 4 C1.34 4.66 0.68 5.32 0 6 C-0.99 6 -1.98 6 -3 6 C-3 4.35 -3 2.7 -3 1 C-2.01 0.67 -1.02 0.34 0 0 Z " fill="#F8F8F8" transform="translate(349,597)"/>
<path d="M0 0 C5.75 3.75 5.75 3.75 8 6 C8 6.99 8 7.98 8 9 C5.03 6.69 2.06 4.38 -1 2 C-0.67 1.34 -0.34 0.68 0 0 Z " fill="#343434" transform="translate(321,571)"/>
<path d="M0 0 C1.65 1.65 3.3 3.3 5 5 C4.67 5.99 4.34 6.98 4 8 C-0.875 3.25 -0.875 3.25 -2 1 C-1.34 0.67 -0.68 0.34 0 0 Z " fill="#141414" transform="translate(226,469)"/>
<path d="M0 0 C0.99 0 1.98 0 3 0 C2.49396008 2.16874252 2.00016187 3.99967627 1 6 C0.01 6 -0.98 6 -2 6 C-1.34 4.02 -0.68 2.04 0 0 Z " fill="#F1F1F1" transform="translate(693,678)"/>
<path d="M0 0 C2.625 0.9375 2.625 0.9375 5 2 C4.67 2.99 4.34 3.98 4 5 C-0.875 3.25 -0.875 3.25 -2 1 C-1.34 0.67 -0.68 0.34 0 0 Z " fill="#181818" transform="translate(400,628)"/>
<path d="M0 0 C0.66 0.33 1.32 0.66 2 1 C1.67 1.99 1.34 2.98 1 4 C0.34 4 -0.32 4 -1 4 C-1.33 4.66 -1.66 5.32 -2 6 C-3.32 5.67 -4.64 5.34 -6 5 C-4.02 3.35 -2.04 1.7 0 0 Z " fill="#1E1E1E" transform="translate(678,677)"/>
<path d="M0 0 C0.99 0 1.98 0 3 0 C3 1.32 3 2.64 3 4 C1.35 4.33 -0.3 4.66 -2 5 C-2 4.01 -2 3.02 -2 2 C-1.34 2 -0.68 2 0 2 C0 1.34 0 0.68 0 0 Z " fill="#F8F8F8" transform="translate(489,679)"/>
<path d="M0 0 C0 3 0 3 -2 6 C-2.66 6 -3.32 6 -4 6 C-4.33 6.99 -4.66 7.98 -5 9 C-5.66 8.34 -6.32 7.68 -7 7 C-4.69 4.69 -2.38 2.38 0 0 Z " fill="#E4E4E4" transform="translate(481,423)"/>
<path d="M0 0 C1.258125 -0.04125 2.51625 -0.0825 3.8125 -0.125 C4.52019531 -0.14820313 5.22789062 -0.17140625 5.95703125 -0.1953125 C8 0 8 0 11 2 C11 2.66 11 3.32 11 4 C7.1936543 3.32829194 3.64793184 2.27253436 0 1 C0 0.67 0 0.34 0 0 Z " fill="#373737" transform="translate(582,404)"/>
<path d="M0 0 C0.66 0.33 1.32 0.66 2 1 C2 1.99 2 2.98 2 4 C-1 6.1875 -1 6.1875 -4 8 C-2.87548273 5.0280615 -1.77706209 2.66559313 0 0 Z " fill="#323232" transform="translate(690,661)"/>
<path d="M0 0 C3.35595828 0.59927826 5.37801226 1.84622436 8 4 C7.34 4 6.68 4 6 4 C5.67 4.66 5.34 5.32 5 6 C3.35 4.02 1.7 2.04 0 0 Z " fill="#343434" transform="translate(290,545)"/>
<path d="M0 0 C4.875 4.75 4.875 4.75 6 7 C5.01 7.33 4.02 7.66 3 8 C0 3.375 0 3.375 0 0 Z " fill="#202020" transform="translate(297,464)"/>
<path d="M0 0 C1.125 1.75 1.125 1.75 2 4 C1.125 6.25 1.125 6.25 0 8 C-0.99 6.35 -1.98 4.7 -3 3 C-2.01 2.67 -1.02 2.34 0 2 C0 1.34 0 0.68 0 0 Z " fill="#E2E2E2" transform="translate(590,463)"/>
<path d="M0 0 C-2.05233685 2.2477975 -3.00667261 3.0022242 -6 4 C-6.33 3.34 -6.66 2.68 -7 2 C-5.26578631 -1.46842738 -3.40984787 -1.13661596 0 0 Z " fill="#EDEDED" transform="translate(526,454)"/>
<path d="M0 0 C2.1793144 1.75864246 2.93686419 2.69396 3.51171875 5.48046875 C3.56972656 6.37378906 3.62773437 7.26710938 3.6875 8.1875 C3.75324219 9.08855469 3.81898438 9.98960937 3.88671875 10.91796875 C3.92410156 11.60503906 3.96148437 12.29210937 4 13 C3.34 12.67 2.68 12.34 2 12 C1.59802999 9.67750658 1.27313343 7.34114367 1 5 C0.68033861 3.33065717 0.35268934 1.6626783 0 0 Z " fill="#A1A1A1" transform="translate(188,374)"/>
<path d="M0 0 C5.53846154 0.61538462 5.53846154 0.61538462 7.875 2.5625 C8.431875 3.2740625 8.431875 3.2740625 9 4 C8.01 4.495 8.01 4.495 7 5 C4.5249829 3.88568235 2.32116581 2.41849022 0 1 C0 0.67 0 0.34 0 0 Z " fill="#C4C4C4" transform="translate(466,351)"/>
<path d="M0 0 C1.875 1.25 1.875 1.25 2.875 4.25 C-2.875 2.5 -2.875 2.5 -5.125 0.25 C-2.125 -0.75 -2.125 -0.75 0 0 Z " fill="#252525" transform="translate(444.125,332.75)"/>
<path d="M0 0 C1.62463842 -0.05395478 3.24978541 -0.09277195 4.875 -0.125 C5.77992188 -0.14820313 6.68484375 -0.17140625 7.6171875 -0.1953125 C10 0 10 0 12 2 C7.47907032 3.45606519 4.48351204 2.27032841 0 1 C0 0.67 0 0.34 0 0 Z " fill="#CDCDCD" transform="translate(370,309)"/>
<path d="M0 0 C2.31 0.33 4.62 0.66 7 1 C6.67 1.66 6.34 2.32 6 3 C3.4375 3.625 3.4375 3.625 1 4 C0.67 2.68 0.34 1.36 0 0 Z " fill="#1E1E1E" transform="translate(361,307)"/>
<path d="M0 0 C3.465 1.485 3.465 1.485 7 3 C5.02 3.99 5.02 3.99 3 5 C1.68 4.01 0.36 3.02 -1 2 C-0.67 1.34 -0.34 0.68 0 0 Z " fill="#242424" transform="translate(430,657)"/>
<path d="M0 0 C-1 3 -1 3 -3.0625 4.1875 C-3.701875 4.455625 -4.34125 4.72375 -5 5 C-5.33 3.68 -5.66 2.36 -6 1 C-3 0 -3 0 0 0 Z " fill="#F7F7F7" transform="translate(382,619)"/>
<path d="M0 0 C4.875 2.75 4.875 2.75 6 5 C4.02 5 2.04 5 0 5 C0 3.35 0 1.7 0 0 Z " fill="#161616" transform="translate(329,590)"/>
<path d="M0 0 C1.65 1.65 3.3 3.3 5 5 C4.01 5.33 3.02 5.66 2 6 C1.01 5.01 0.02 4.02 -1 3 C-0.67 2.01 -0.34 1.02 0 0 Z " fill="#E3E3E3" transform="translate(675,576)"/>
<path d="M0 0 C1.32 0 2.64 0 4 0 C5.75 2.5 5.75 2.5 7 5 C6.01 5 5.02 5 4 5 C1.8125 2.5 1.8125 2.5 0 0 Z " fill="#E2E2E2" transform="translate(265,503)"/>
<path d="M0 0 C1.32 0 2.64 0 4 0 C7 3.21428571 7 3.21428571 7 6 C3.63279613 4.60667426 2.0140476 3.0210714 0 0 Z " fill="#1A1A1A" transform="translate(792,422)"/>
<path d="M0 0 C0.33 1.32 0.66 2.64 1 4 C-0.65 5.32 -2.3 6.64 -4 8 C-4 4.09161134 -2.49432124 2.88405893 0 0 Z " fill="#2A2A2A" transform="translate(194,292)"/>
<path d="M0 0 C1.32 0.66 2.64 1.32 4 2 C2.35 3.65 0.7 5.3 -1 7 C-1 5.68 -1 4.36 -1 3 C-0.34 3 0.32 3 1 3 C0.67 2.01 0.34 1.02 0 0 Z " fill="#DFDFDF" transform="translate(197,284)"/>
</svg>
